<svg width="79" height="77" viewBox="0 0 79 77" fill="none" xmlns="http://www.w3.org/2000/svg">
<path d="M44.4366 44.5573C43.995 47.33 43.2971 50.0674 41.9251 52.5916C41.9022 53.0506 41.8317 53.5634 41.8088 54.0224C41.6 53.9334 41.4387 53.7907 41.1762 53.6541C40.4087 54.4127 39.3003 54.5818 38.3391 53.8266C21.6948 41.0081 23.5075 17.3041 32.1164 0.000451265C25.664 7.61338 22.5295 17.1093 22.596 26.5631C22.098 30.9155 22.2678 35.3799 23.0869 39.6522C24.8759 49.0012 30.7061 61.2571 40.6303 63.9079C40.313 66.2154 40.0432 68.4691 39.7259 70.7766C39.7215 71.5396 40.2113 72.0691 40.8254 72.1335C40.8792 72.1811 40.8792 72.1811 40.9329 72.2287C41.3153 72.663 41.8879 72.8825 42.4237 72.4939C42.5188 72.3865 42.6677 72.3265 42.7153 72.2728C48.6759 69.1136 54.3554 65.5139 59.7477 61.3723C60.331 60.93 60.5257 59.9521 59.887 59.4824C54.1859 55.2019 49.0619 50.3778 44.5502 44.7538C44.5441 44.6525 44.4903 44.6049 44.4366 44.5573ZM29.6617 51.6086C29.8828 51.9002 30.0978 52.0905 30.3189 52.3822C31.1743 53.9065 32.1787 55.3708 33.2306 56.7815C31.8624 55.1867 30.6907 53.4782 29.6617 51.6086ZM44.2276 65.3671C43.6443 65.8094 43.6337 66.4711 43.9684 66.9592C43.772 67.0728 43.5755 67.1865 43.4266 67.2464C43.379 67.3001 43.379 67.3001 43.3314 67.3539C43.4249 66.3821 43.5183 65.4102 43.558 64.3909C43.6593 64.3847 43.7607 64.3785 43.9157 64.42C44.1721 64.4552 44.3686 64.3416 44.6127 64.1742C44.8752 64.3108 45.1915 64.4949 45.5016 64.5777C45.0073 64.8112 44.5668 65.0922 44.2276 65.3671ZM44.841 62.0755C44.5907 62.1416 44.4418 62.2015 44.2453 62.3151C44.0903 62.2737 43.9352 62.2323 43.774 62.0895C43.7678 61.9882 43.8154 61.9345 43.8092 61.8332C43.8031 61.7318 43.8031 61.7318 43.7969 61.6305L43.8445 61.5768C43.8921 61.523 43.9934 61.5169 43.9934 61.5169C44.2559 61.6534 44.5185 61.79 44.7273 61.879C45.3537 62.146 45.7573 61.257 45.1785 60.9363C44.9697 60.8473 44.7547 60.657 44.5459 60.568C44.5336 60.3653 44.4137 60.0675 44.1988 59.8772C44.3477 59.8173 44.3953 59.7636 44.5442 59.7037C45.404 60.4649 46.3115 61.1725 47.2604 61.725C46.4022 61.828 45.6454 61.9249 44.841 62.0755ZM51.3793 61.7287C51.2719 61.6335 51.1582 61.4371 51.0031 61.3956C50.323 61.0811 49.6367 60.6652 49.0041 60.2969C49.8869 60.5991 50.8234 60.9489 51.7661 61.4001C51.6234 61.5613 51.5282 61.6688 51.3793 61.7287ZM45.4149 53.9557C45.9585 54.5328 46.5497 55.0562 47.1946 55.6271C46.6281 55.509 46.014 55.4447 45.3999 55.3803C45.4228 54.9213 45.392 54.4147 45.4149 53.9557ZM53.3072 59.9843C53.1997 59.8891 53.0922 59.794 52.9847 59.6988C51.9345 59.1525 50.9381 58.6538 49.8879 58.1075C50.502 58.1718 51.0685 58.2899 51.6826 58.3542C52.2967 58.4186 52.6835 58.09 52.9091 57.6186C53.4403 57.9931 53.8703 58.3737 54.4015 58.7482C54.0746 59.2257 53.694 59.6557 53.3072 59.9843Z" fill="#050000"/>
</svg>
