<svg width="79" height="77" viewBox="0 0 79 77" fill="none" xmlns="http://www.w3.org/2000/svg">
<path d="M33.6835 44.5573C34.1251 47.33 34.823 50.0674 36.195 52.5916C36.2179 53.0506 36.2884 53.5634 36.3114 54.0224C36.5202 53.9334 36.6814 53.7907 36.9439 53.6541C37.7114 54.4127 38.8198 54.5818 39.781 53.8266C56.4253 41.0081 54.6126 17.3041 46.0037 0.000451265C52.4562 7.61338 55.5906 17.1093 55.5241 26.5631C56.0222 30.9155 55.8524 35.3799 55.0332 39.6522C53.2442 49.0012 47.414 61.2571 37.4899 63.9079C37.8072 66.2154 38.0769 68.4691 38.3942 70.7766C38.3986 71.5396 37.9088 72.0691 37.2947 72.1335C37.241 72.1811 37.2409 72.1811 37.1872 72.2287C36.8048 72.663 36.2322 72.8825 35.6965 72.4939C35.6013 72.3865 35.4524 72.3265 35.4048 72.2728C29.4443 69.1136 23.7647 65.5139 18.3724 61.3723C17.7891 60.93 17.5944 59.9521 18.2331 59.4824C23.9343 55.2019 29.0583 50.3778 33.5699 44.7538C33.5761 44.6525 33.6298 44.6049 33.6835 44.5573ZM48.4584 51.6086C48.2373 51.9002 48.0223 52.0905 47.8012 52.3822C46.9458 53.9065 45.9414 55.3708 44.8895 56.7815C46.2577 55.1867 47.4295 53.4782 48.4584 51.6086ZM33.8926 65.3671C34.4758 65.8094 34.4864 66.4711 34.1517 66.9592C34.3482 67.0728 34.5446 67.1865 34.6935 67.2464C34.7411 67.3001 34.7411 67.3001 34.7887 67.3539C34.6953 66.3821 34.6018 65.4102 34.5621 64.3909C34.4608 64.3847 34.3595 64.3785 34.2044 64.42C33.948 64.4552 33.7515 64.3416 33.5075 64.1742C33.2449 64.3108 32.9286 64.4949 32.6185 64.5777C33.1128 64.8112 33.5533 65.0922 33.8926 65.3671ZM33.2792 62.0755C33.5294 62.1416 33.6783 62.2015 33.8748 62.3151C34.0298 62.2737 34.1849 62.2323 34.3461 62.0895C34.3523 61.9882 34.3047 61.9345 34.3109 61.8332C34.317 61.7318 34.317 61.7318 34.3232 61.6305L34.2756 61.5768C34.228 61.523 34.1267 61.5169 34.1267 61.5169C33.8642 61.6534 33.6016 61.79 33.3928 61.879C32.7664 62.146 32.3628 61.257 32.9417 60.9363C33.1505 60.8473 33.3654 60.657 33.5742 60.568C33.5866 60.3653 33.7064 60.0675 33.9213 59.8772C33.7724 59.8173 33.7249 59.7636 33.576 59.7037C32.7161 60.4649 31.8086 61.1725 30.8597 61.725C31.7179 61.828 32.4747 61.9249 33.2792 62.0755ZM26.7408 61.7287C26.8483 61.6335 26.9619 61.4371 27.117 61.3956C27.7971 61.0811 28.4835 60.6652 29.116 60.2969C28.2332 60.5991 27.2967 60.9489 26.354 61.4001C26.4967 61.5613 26.5919 61.6688 26.7408 61.7287ZM32.7052 53.9557C32.1616 54.5328 31.5704 55.0562 30.9255 55.6271C31.492 55.509 32.1061 55.4447 32.7202 55.3803C32.6973 54.9213 32.7281 54.4147 32.7052 53.9557ZM24.8129 59.9843C24.9204 59.8891 25.0279 59.794 25.1354 59.6988C26.1856 59.1525 27.182 58.6538 28.2322 58.1075C27.6181 58.1718 27.0516 58.2899 26.4375 58.3542C25.8234 58.4186 25.4366 58.09 25.211 57.6186C24.6798 57.9931 24.2498 58.3737 23.7186 58.7482C24.0455 59.2257 24.4261 59.6557 24.8129 59.9843Z" fill="#050000"/>
</svg>
