<svg width="39" height="24" viewBox="0 0 39 24" fill="none" xmlns="http://www.w3.org/2000/svg">
<path d="M23.9928 11.9999C23.9928 18.6287 18.6228 23.9999 11.9964 23.9999C5.36994 23.9999 0 18.6276 0 11.9999C0 5.37231 5.37125 0 11.9964 0C18.6215 0 23.9928 5.37231 23.9928 11.9999Z" fill="#E2574C"/>
<path d="M26.4036 0C23.7132 0 21.2363 0.896415 19.2348 2.39285L19.2444 2.39404C19.638 2.7744 20.0724 3.0421 20.4072 3.47998L17.9111 3.51959C17.52 3.91443 17.1636 4.34401 16.8276 4.79044H21.2291C21.5639 5.19239 21.8735 5.54169 22.1543 5.98562H16.0296C15.8052 6.37204 15.5977 6.76924 15.4164 7.18198H22.8516C23.046 7.59354 23.22 7.90441 23.3677 8.34004H14.976C14.8429 8.7541 14.7289 9.17763 14.6424 9.60958H23.7192C23.8081 10.0248 23.8764 10.4087 23.9232 10.8H14.4624C14.4227 11.1949 14.4023 11.5956 14.4023 12.0001H23.9915C23.9915 12.4249 23.9615 12.8184 23.9183 13.2001H14.4624C14.5032 13.6069 14.5632 14.0065 14.6424 14.4002H23.7047C23.6112 14.7889 23.5031 15.1801 23.3675 15.5857H14.9484C15.0755 15.9961 15.2305 16.3945 15.3996 16.7833H22.8516C22.6453 17.2201 22.4113 17.5693 22.1533 17.9785H16.0082C16.2506 18.3984 16.5182 18.7992 16.8085 19.1832L21.2292 19.2492C20.8524 19.7015 20.3689 19.974 19.9284 20.37C19.9523 20.3892 19.224 20.3676 17.7899 20.3448C19.9715 22.5961 23.0208 24 26.4035 24C33.0311 24 38.4034 18.6276 38.4034 12.0001C38.4034 5.37257 33.0323 0 26.4036 0Z" fill="#F4B459"/>
</svg>
