<svg width="124" height="25" viewBox="0 0 124 25" fill="none" xmlns="http://www.w3.org/2000/svg">
<g clip-path="url(#clip0)">
<path fill-rule="evenodd" clip-rule="evenodd" d="M8.67352 11.8433C8.63062 11.5464 8.52577 11.2615 8.36563 11.0067C8.20534 10.7525 8.00287 10.5269 7.76672 10.3392C7.26737 9.94268 6.6452 9.72789 6.00457 9.73083C5.40059 9.73083 4.88688 9.84667 4.46511 10.0775C4.04334 10.3083 3.70087 10.6183 3.43853 11.0067C3.16895 11.4117 2.9747 11.8609 2.86492 12.3333C2.74445 12.8374 2.68443 13.3537 2.68609 13.8717C2.68609 14.3783 2.74514 14.8717 2.86576 15.35C2.98555 15.8292 3.17619 16.26 3.43937 16.6425C3.70087 17.0258 4.04334 17.3333 4.46511 17.5642C4.88688 17.795 5.40059 17.91 6.00457 17.91C6.82617 17.91 7.46726 17.6625 7.92952 17.1667C8.39093 16.6708 8.67352 16.0175 8.77643 15.2067H11.3762C11.3087 15.9617 11.1316 16.6425 10.8465 17.2517C10.5771 17.838 10.1932 18.3662 9.71697 18.8058C9.24194 19.2387 8.68332 19.5723 8.07461 19.7867C7.44786 20.0117 6.75784 20.1242 6.00457 20.1242C5.06993 20.1242 4.22892 19.9642 3.48155 19.6425C2.76172 19.3405 2.11677 18.8879 1.59118 18.3158C1.0687 17.7374 0.667334 17.0625 0.410226 16.33C0.131743 15.5399 -0.00693667 14.7083 0.000266869 13.8717C0.000266869 12.97 0.13692 12.1333 0.41107 11.3617C0.667684 10.6192 1.06855 9.93328 1.59118 9.3425C2.11389 8.76084 2.7591 8.29922 3.48155 7.99C4.22892 7.66333 5.06993 7.5 6.00457 7.5C6.67771 7.5 7.31374 7.59583 7.9118 7.7875C8.51072 7.97917 9.04721 8.2575 9.52043 8.62417C9.99281 8.99 10.3842 9.44333 10.6921 9.98417C11 10.5258 11.194 11.145 11.2741 11.8433H8.67352ZM13.4075 7.7875H16.0933V12.4167H21.0364V7.7875H23.7231V19.8542H21.0372V14.6483H16.0933V19.8542H13.4075V7.7875ZM26.284 7.7875H35.4196V10.0183H28.9699V12.6042H34.889V14.6658H28.9699V17.6233H35.5562V19.8542H26.284V7.7875ZM45.7124 11.8433C45.6695 11.5464 45.5647 11.2615 45.4045 11.0067C45.2442 10.7525 45.0418 10.5269 44.8056 10.3392C44.3063 9.94268 43.6841 9.72789 43.0434 9.73083C42.4395 9.73083 41.9266 9.84667 41.504 10.0775C41.0822 10.3083 40.7406 10.6183 40.4783 11.0067C40.2087 11.4117 40.0144 11.8609 39.9046 12.3333C39.7839 12.8374 39.7236 13.3537 39.725 13.8717C39.725 14.3783 39.7849 14.8717 39.9046 15.35C40.0244 15.8292 40.2159 16.26 40.4783 16.6425C40.7397 17.0258 41.0822 17.3333 41.504 17.5642C41.9258 17.795 42.4403 17.91 43.0443 17.91C43.8651 17.91 44.507 17.6625 44.9684 17.1667C45.4307 16.6708 45.7124 16.0175 45.8153 15.2067H48.4159C48.3468 15.9617 48.1705 16.6425 47.8845 17.2517C47.6153 17.838 47.2318 18.3661 46.7559 18.8058C46.2811 19.2386 45.7227 19.5722 45.1143 19.7867C44.4867 20.0117 43.7967 20.1242 43.0443 20.1242C42.1088 20.1242 41.2678 19.9642 40.5204 19.6425C39.8009 19.3404 39.1563 18.8878 38.6309 18.3158C38.1084 17.7374 37.7071 17.0625 37.45 16.33C37.1712 15.5399 37.0322 14.7083 37.0392 13.8717C37.0392 12.97 37.1766 12.1333 37.45 11.3617C37.7068 10.6191 38.108 9.93321 38.6309 9.3425C39.1534 8.76094 39.7983 8.29932 40.5204 7.99C41.2678 7.66333 42.1097 7.5 43.0443 7.5C43.7166 7.5 44.3526 7.59583 44.9507 7.7875C45.5496 7.97917 46.0861 8.2575 46.5593 8.62417C47.0325 8.99 47.4231 9.44333 47.7318 9.98417C48.0389 10.5258 48.2329 11.145 48.313 11.8433H45.7116H45.7124ZM50.4463 7.7875H53.1322V12.79L57.9049 7.7875H61.2579L56.4852 12.5533L61.7202 19.8533H58.3503L54.6725 14.4283L53.1322 15.9667V19.8542H50.4463V7.7875Z" fill="white"/>
<path d="M76.3318 24.9208C69.4274 24.9208 63.8306 19.3917 63.8306 12.5708C63.8306 5.74999 69.4266 0.220825 76.3318 0.220825C83.2353 0.220825 88.833 5.74999 88.833 12.5708C88.833 19.3917 83.2353 24.9208 76.3318 24.9208ZM76.3318 22.3208C81.7819 22.3208 86.2012 17.955 86.2012 12.5708C86.2012 7.18582 81.7819 2.82083 76.3318 2.82083C70.8809 2.82083 66.4624 7.18582 66.4624 12.5708C66.4624 17.955 70.8809 22.3208 76.3318 22.3208Z" fill="#25E270"/>
<path d="M81.0805 8.32915C81.2664 8.15014 81.5162 8.05071 81.7758 8.05239C82.0354 8.05407 82.2839 8.15674 82.4674 8.33815C82.6509 8.51955 82.7547 8.76509 82.7562 9.02156C82.7578 9.27802 82.657 9.52476 82.4757 9.70832L75.1023 16.9925C75.0107 17.0831 74.9018 17.1549 74.7821 17.204C74.6623 17.253 74.5339 17.2782 74.4043 17.2782C74.2746 17.2782 74.1463 17.253 74.0265 17.204C73.9067 17.1549 73.7979 17.0831 73.7063 16.9925L70.0411 13.3717C69.9494 13.2811 69.8767 13.1736 69.8271 13.0553C69.7775 12.937 69.752 12.8101 69.752 12.6821C69.752 12.554 69.7775 12.4272 69.8271 12.3089C69.8767 12.1906 69.9494 12.083 70.0411 11.9925C70.1327 11.9019 70.2416 11.8301 70.3613 11.7811C70.4811 11.7321 70.6095 11.7069 70.7391 11.7069C70.8687 11.7069 70.9971 11.7321 71.1169 11.7811C71.2367 11.8301 71.3455 11.9019 71.4371 11.9925L74.4047 14.9242L81.0805 8.32915Z" fill="#25E270"/>
<path fill-rule="evenodd" clip-rule="evenodd" d="M94.6316 13.1783H96.7185C97.0264 13.1783 97.3233 13.1558 97.6085 13.1108C97.8936 13.0658 98.1441 12.9783 98.3609 12.8492C98.5777 12.7192 98.7515 12.5358 98.8831 12.2992C99.0138 12.0633 99.0796 11.7533 99.0796 11.37C99.0796 10.9867 99.0138 10.6775 98.8831 10.4408C98.7621 10.2146 98.5817 10.0246 98.3609 9.89083C98.1296 9.75624 97.8741 9.66737 97.6085 9.62917C97.3141 9.58369 97.0165 9.5614 96.7185 9.5625H94.6316V13.1792V13.1783ZM91.9458 7.5H97.4541C98.2183 7.5 98.8687 7.61 99.4044 7.82917C99.9409 8.04917 100.377 8.33917 100.714 8.7C101.049 9.06083 101.295 9.47167 101.449 9.93333C101.603 10.3958 101.679 10.875 101.679 11.37C101.679 11.8542 101.603 12.3308 101.449 12.7983C101.298 13.2603 101.047 13.684 100.713 14.04C100.377 14.4008 99.9409 14.6908 99.4052 14.9108C98.8687 15.13 98.2183 15.24 97.4541 15.24H94.6316V19.5667H91.9458V7.5ZM105.37 14.9025H108.535L106.995 10.4742H106.962L105.37 14.9025ZM105.626 7.5H108.38L112.948 19.5667H110.159L109.236 16.8792H104.669L103.711 19.5667H101.008L105.626 7.5ZM116.108 14.8683L111.626 7.5H114.638L117.494 12.2658L120.333 7.5H123.328L118.794 14.9358V19.5667H116.108V14.8683Z" fill="white"/>
</g>
<defs>
<clipPath id="clip0">
<rect width="124" height="25" fill="white"/>
</clipPath>
</defs>
</svg>
