<svg width="136" height="30" viewBox="0 0 136 30" fill="none" xmlns="http://www.w3.org/2000/svg">
<path d="M15.062 30C6.7467 30 0 23.2845 0 14.9924C0 6.71551 6.7467 0 15.062 0C23.3774 0 30.1241 6.71551 30.1241 14.9924C30.1393 23.2845 23.3926 30 15.062 30Z" fill="#373743"/>
<path d="M20.8345 17.5239C20.4842 18.4941 19.8293 19.3279 18.9308 19.8433C18.0018 20.389 16.9052 20.7074 15.7326 20.7074C12.2602 20.7074 9.45798 17.9181 9.71689 14.5831C9.9301 11.718 12.4277 9.41377 15.4584 9.2925C16.7073 9.24702 17.8799 9.55021 18.8699 10.1263C19.7836 10.6568 20.469 11.4906 20.8192 12.4759C20.8192 12.4911 20.8192 12.4911 20.8345 12.5062H25.0378C23.9261 8.1404 19.9512 4.9115 15.2148 4.9115C12.976 4.9115 10.9048 5.63914 9.22954 6.85187C10.2195 6.47289 11.3008 6.26067 12.4125 6.26067C15.8544 6.26067 18.8546 8.24652 20.2862 11.1268H20.2557C18.8089 8.6255 16.0067 6.92767 12.778 6.92767C12.6714 6.92767 12.5648 6.92767 12.4582 6.92767C9.09248 7.04894 6.25978 9.32282 5.40692 12.4153C5.17848 13.2339 5.05664 14.098 5.05664 14.9923C5.05664 15.8867 5.17848 16.7508 5.40692 17.5694C6.25978 20.6467 9.09248 22.9358 12.4582 23.057C12.5648 23.057 12.6714 23.057 12.778 23.057C15.9915 23.057 18.7937 21.3592 20.2405 18.8579H20.271C18.8394 21.7382 15.8392 23.724 12.3973 23.724C11.2703 23.724 10.189 23.5118 9.19908 23.1177C10.8743 24.3456 12.9456 25.0732 15.1995 25.0732C19.9359 25.0732 23.9108 21.8443 25.0226 17.4785H20.8192C20.8497 17.5088 20.8345 17.5088 20.8345 17.5239Z" fill="white"/>
<path d="M34.6172 14.7348C34.6172 11.4756 36.4904 9.83838 40.2369 9.83838C41.6228 9.83838 42.765 10.1264 43.6483 10.7176C44.5316 11.3088 45.156 12.0819 45.5063 13.037C45.6129 13.3856 45.6282 13.6585 45.552 13.8404C45.4759 14.0223 45.2779 14.1739 44.9581 14.28L43.5874 14.7651C43.2371 14.8864 42.9782 14.9167 42.7955 14.8257C42.6127 14.7348 42.4604 14.5226 42.3081 14.1587C41.9578 13.3553 41.2573 12.9612 40.2369 12.9612C38.9272 12.9612 38.2875 13.5675 38.2875 14.7954L38.2723 18.1456C38.2571 19.3432 38.9119 19.9495 40.2064 19.9495C41.1811 19.9495 41.836 19.5402 42.2167 18.7217C42.3538 18.3882 42.5061 18.1759 42.6889 18.1001C42.8716 18.0243 43.1305 18.0395 43.4656 18.1456L45.0799 18.6307C45.75 18.8732 45.948 19.2977 45.6738 19.9041C44.8058 22.0264 42.9934 23.0875 40.2369 23.0875C38.3789 23.0875 36.9778 22.6176 36.0335 21.6625C35.0893 20.7227 34.6172 19.419 34.6172 17.7818V14.7348Z" fill="#25E270"/>
<path d="M52.9682 23.1178C50.897 23.1178 49.4806 22.7843 48.6735 22.1173C47.8358 21.4351 47.4246 20.374 47.4399 18.9945C47.4551 17.5392 47.912 16.4932 48.7953 15.8869C49.6634 15.2956 51.0797 15.0076 53.0139 15.0076C53.1814 15.0076 53.7906 15.0379 54.9785 15.1137V14.7348C54.9785 14.0678 54.8414 13.5827 54.5521 13.2643C54.2779 12.9611 53.7754 12.8095 53.0443 12.8095C51.9935 12.8095 51.2625 13.1279 50.8208 13.81C50.6076 14.1132 50.4249 14.28 50.2573 14.3406C50.1964 14.3558 50.1203 14.3709 50.0441 14.3709C49.8918 14.3709 49.7091 14.3255 49.4806 14.2497L48.5364 13.8404C48.1861 13.6888 47.9577 13.4765 47.8511 13.2188C47.7292 12.946 47.7597 12.6428 47.9424 12.3245C48.841 10.6418 50.5467 9.77771 53.0139 9.77771C54.7805 9.77771 56.1359 10.2325 57.0345 11.1117C57.9178 11.9758 58.3442 13.2643 58.329 14.9318L58.2681 20.9349C58.2681 21.4048 58.1919 21.7231 58.0396 21.9354C57.8873 22.1476 57.6437 22.3295 57.2629 22.4811C56.3187 22.9207 54.8719 23.1178 52.9682 23.1178ZM52.8159 17.8424C52.0544 17.8424 51.5214 17.9485 51.232 18.1607C50.9731 18.3578 50.8361 18.661 50.8361 19.0854C50.8361 19.4947 50.9427 19.7979 51.1406 19.9798C51.2625 20.0859 51.628 20.2679 52.6331 20.2679C53.5926 20.2679 54.3389 20.2072 54.8719 20.1011C54.948 20.0708 54.948 20.0405 54.948 20.0253L54.9633 17.9485C53.288 17.8575 52.8616 17.8424 52.8159 17.8424Z" fill="#25E270"/>
<path d="M60.3254 13.6433C60.3406 12.4306 60.767 11.4907 61.6351 10.8237C62.5032 10.1719 63.7977 9.83838 65.5034 9.83838C68.0772 9.83838 69.8438 10.7025 70.8033 12.4154C70.9708 12.7338 71.0317 12.9915 70.9708 13.1886C70.9099 13.3856 70.7119 13.5524 70.3769 13.6888L69.0519 14.2497C68.7016 14.371 68.4579 14.4164 68.3361 14.371C68.199 14.3255 68.0315 14.1587 67.8183 13.8707C67.3766 13.2947 66.6609 13.0066 65.6557 13.0066C64.483 13.0066 63.8739 13.2947 63.8434 13.8707C63.8434 14.2194 64.0109 14.4771 64.346 14.6135C64.681 14.7651 65.3054 14.8712 66.1887 14.947C67.864 15.1289 69.1433 15.5231 70.0114 16.1446C70.8795 16.7661 71.3211 17.7515 71.3059 19.1006C71.3059 20.3588 70.8338 21.329 69.9048 22.0264C68.9758 22.7237 67.6356 23.0723 65.8994 23.0723C62.9448 23.0723 61.0868 22.1173 60.3101 20.2073C60.0969 19.616 60.2797 19.2067 60.8889 19.0097L62.3509 18.5246C62.6859 18.4336 62.9296 18.4185 63.0667 18.4791C63.2037 18.5397 63.3713 18.7217 63.554 19.04C63.9195 19.6464 64.6506 19.9495 65.7471 19.9495C67.1177 19.9495 67.8183 19.616 67.8488 18.9642C67.8488 18.5852 67.666 18.3124 67.3157 18.1759C66.9655 18.0243 66.2801 17.9182 65.275 17.8121C64.5896 17.7515 63.9652 17.6302 63.4322 17.4786C62.8839 17.3119 62.3661 17.0845 61.8788 16.7813C61.3914 16.4781 61.0107 16.0536 60.7366 15.5231C60.4624 14.9925 60.3254 14.371 60.3254 13.6433Z" fill="#25E270"/>
<path d="M75.8741 4.91162C76.1939 4.91162 76.4224 4.97226 76.5442 5.10869C76.666 5.22996 76.727 5.47251 76.727 5.80601L76.7574 10.0051H76.9097C76.9859 9.98994 77.0925 9.97478 77.2448 9.94447C77.3818 9.91415 77.5494 9.89899 77.7321 9.88383C77.9149 9.86867 78.1281 9.85351 78.3565 9.85351C78.585 9.83835 78.8134 9.83835 79.0266 9.83835C80.7476 9.83835 82.0573 10.2931 82.9406 11.2178C83.8239 12.1274 84.2504 13.4008 84.2504 14.9925L84.2808 21.8293C84.2808 22.1628 84.2047 22.4053 84.0828 22.5266C83.9458 22.6479 83.7173 22.7236 83.3823 22.7236H81.4938C81.174 22.7236 80.9455 22.663 80.8085 22.5266C80.6714 22.4053 80.6105 22.1628 80.6105 21.8293L80.5648 14.947C80.5953 13.7494 79.9099 13.1431 78.524 13.1431C78.3565 13.1431 78.189 13.1582 78.0062 13.1734C77.8235 13.1885 77.656 13.2037 77.5189 13.2188C77.3818 13.234 77.2448 13.2492 77.1229 13.2643C77.0011 13.2795 76.9097 13.2946 76.8488 13.3098L76.727 13.3401V21.8444C76.727 22.1779 76.6508 22.4205 76.529 22.5417C76.3919 22.663 76.1787 22.7388 75.8436 22.7388H73.9552C73.6201 22.7388 73.3765 22.6782 73.2546 22.5417C73.1328 22.4205 73.0719 22.1779 73.0719 21.8444L73.0566 5.80601C73.0566 5.47251 73.1328 5.22996 73.2546 5.10869C73.3917 4.98742 73.6201 4.91162 73.9552 4.91162H75.8741Z" fill="#25E270"/>
<path d="M86.0929 13.6433C86.1082 12.4306 86.5346 11.4907 87.4027 10.8237C88.2708 10.1719 89.5653 9.83838 91.271 9.83838C93.8448 9.83838 95.6114 10.7025 96.5709 12.4154C96.7384 12.7338 96.7993 12.9915 96.7384 13.1886C96.6775 13.3856 96.4795 13.5524 96.1444 13.6888L94.8195 14.2497C94.4692 14.371 94.2255 14.4164 94.1037 14.371C93.9666 14.3255 93.7991 14.1587 93.5859 13.8707C93.1442 13.2947 92.4284 13.0066 91.4233 13.0066C90.2506 13.0066 89.6414 13.2947 89.611 13.8707C89.611 14.2194 89.7785 14.4771 90.1135 14.6135C90.4486 14.7651 91.073 14.8712 91.9563 14.947C93.6316 15.1289 94.9109 15.5231 95.7789 16.1446C96.647 16.7661 97.0887 17.7515 97.0735 19.1006C97.0735 20.3588 96.6013 21.329 95.6723 22.0264C94.7433 22.7237 93.4031 23.0723 91.667 23.0723C88.7124 23.0723 86.8544 22.1173 86.0777 20.2073C85.8645 19.616 86.0472 19.2067 86.6564 19.0097L88.1185 18.5246C88.4535 18.4336 88.6972 18.4185 88.8343 18.4791C88.9713 18.5397 89.1388 18.7217 89.3216 19.04C89.6871 19.6464 90.4181 19.9495 91.5147 19.9495C92.8853 19.9495 93.5859 19.616 93.6163 18.9642C93.6163 18.5852 93.4336 18.3124 93.0833 18.1759C92.733 18.0243 92.0477 17.9182 91.0425 17.8121C90.3572 17.7515 89.7328 17.6302 89.1998 17.4786C88.6515 17.3119 88.1337 17.0845 87.6464 16.7813C87.159 16.4781 86.7783 16.0536 86.5041 15.5231C86.23 14.9925 86.0929 14.371 86.0929 13.6433Z" fill="#25E270"/>
<path d="M98.4597 14.7802C98.4749 13.1885 98.9775 11.9758 99.9827 11.1269C100.988 10.278 102.419 9.85352 104.293 9.85352C105.983 9.85352 107.369 10.2628 108.42 11.0966C109.471 11.9303 110.019 13.0218 110.034 14.3861C110.034 16.66 108.283 17.8121 104.78 17.8121C104.11 17.8121 103.196 17.7363 102.084 17.5999L102.1 18.2214C102.084 19.4947 102.8 20.1314 104.247 20.1314C105.359 20.1314 106.151 19.8131 106.638 19.1612C106.866 18.8732 107.064 18.7065 107.232 18.661C107.415 18.6155 107.674 18.6762 108.024 18.8581L109.227 19.5099C109.836 19.8434 109.958 20.3133 109.593 20.9349C108.709 22.3902 106.912 23.133 104.216 23.133C102.252 23.133 100.79 22.6024 99.8152 21.5412C98.8557 20.4801 98.3836 19.1309 98.3988 17.4937L98.4597 14.7802ZM106.41 14.0374C106.394 13.613 106.212 13.2946 105.861 13.0673C105.511 12.8399 104.993 12.7338 104.308 12.7338C103.638 12.7338 103.09 12.9005 102.709 13.2492C102.313 13.5978 102.115 14.0678 102.084 14.659L102.069 14.9773C103.12 15.0986 103.912 15.1744 104.445 15.1744C105.755 15.1592 106.394 14.7954 106.41 14.0374Z" fill="#25E270"/>
<path d="M112.745 10.7176C114.176 10.1415 115.821 9.85352 117.694 9.85352C119.415 9.85352 120.725 10.3083 121.608 11.233C122.492 12.1577 122.933 13.4311 122.933 15.0531L122.948 21.8444C122.948 22.1779 122.872 22.4205 122.75 22.5417C122.613 22.663 122.385 22.7388 122.05 22.7388H120.161C119.842 22.7388 119.613 22.6782 119.476 22.5417C119.339 22.4205 119.278 22.1779 119.278 21.8444L119.248 14.947C119.263 13.7494 118.578 13.1431 117.207 13.1431C116.582 13.1431 116.004 13.2189 115.501 13.3553C115.471 13.3553 115.44 13.3856 115.425 13.4462L115.44 21.8293C115.44 22.1628 115.364 22.4053 115.242 22.5266C115.105 22.6479 114.892 22.7236 114.557 22.7236H112.668C112.333 22.7236 112.09 22.663 111.968 22.5266C111.846 22.4053 111.785 22.1628 111.785 21.8293V12.0971C111.8 11.7029 111.861 11.3998 111.983 11.2178C112.09 11.0511 112.349 10.8692 112.745 10.7176Z" fill="#25E270"/>
<path d="M124.868 14.7044C124.883 13.0369 125.309 11.809 126.177 11.0208C127.045 10.2325 128.34 9.83835 130.107 9.83835C130.807 9.83835 131.538 9.88383 132.33 9.98994V5.80601C132.33 5.47251 132.406 5.22996 132.528 5.10869C132.665 4.98742 132.894 4.91162 133.229 4.91162H135.117C135.437 4.91162 135.665 4.97226 135.787 5.10869C135.909 5.22996 135.97 5.47251 135.97 5.80601V20.95C135.955 21.3442 135.894 21.6322 135.787 21.7989C135.665 21.9657 135.422 22.1173 135.026 22.284C133.701 22.8298 132.117 23.1026 130.259 23.1026C128.462 23.1026 127.122 22.6175 126.208 21.6625C125.294 20.6923 124.852 19.4038 124.868 17.7818V14.7044ZM132.33 13.234C131.736 13.1431 131.203 13.0824 130.731 13.0824C129.969 13.0824 129.421 13.234 129.056 13.5372C128.705 13.8404 128.523 14.3406 128.507 15.0531V18.0698C128.507 18.6307 128.69 19.0703 129.04 19.3735C129.391 19.6767 129.893 19.8282 130.533 19.8282C131.249 19.8282 131.827 19.7676 132.269 19.6615C132.3 19.6463 132.33 19.6009 132.345 19.5402L132.33 13.234Z" fill="#25E270"/>
</svg>
