<svg width="110" height="22" viewBox="0 0 110 22" fill="none" xmlns="http://www.w3.org/2000/svg">
<g clip-path="url(#clip0)">
<path fill-rule="evenodd" clip-rule="evenodd" d="M7.69401 10.4222C7.65595 10.1609 7.56294 9.91015 7.42088 9.6859C7.27869 9.46226 7.09908 9.26368 6.88959 9.0985C6.44662 8.74959 5.89469 8.56058 5.32639 8.56317C4.79061 8.56317 4.33489 8.6651 3.96074 8.86824C3.58659 9.07137 3.28278 9.34417 3.05006 9.6859C2.81092 10.0423 2.6386 10.4376 2.54122 10.8534C2.43435 11.297 2.3811 11.7513 2.38258 12.2071C2.38258 12.653 2.43496 13.0871 2.54197 13.508C2.64822 13.9297 2.81734 14.3088 3.05081 14.6454C3.28278 14.9828 3.58659 15.2534 3.96074 15.4565C4.33489 15.6596 4.79061 15.7608 5.32639 15.7608C6.05523 15.7608 6.62394 15.543 7.03401 15.1067C7.44333 14.6704 7.69401 14.0954 7.7853 13.3819H10.0916C10.0317 14.0463 9.87455 14.6454 9.62163 15.1815C9.38263 15.6975 9.04215 16.1623 8.61965 16.5492C8.19825 16.9301 7.7027 17.2236 7.16271 17.4123C6.60673 17.6103 5.99462 17.7093 5.32639 17.7093C4.49727 17.7093 3.75122 17.5685 3.08822 17.2854C2.44967 17.0197 1.87754 16.6214 1.41129 16.118C0.947798 15.6089 0.591745 15.015 0.363666 14.3704C0.116624 13.6751 -0.00639764 12.9433 -7.40233e-06 12.2071C-7.40233e-06 11.4136 0.121217 10.6774 0.364414 9.9983C0.592056 9.34489 0.947663 8.74132 1.41129 8.22144C1.87499 7.70958 2.44735 7.30335 3.08822 7.03124C3.75122 6.74377 4.49727 6.60004 5.32639 6.60004C5.92353 6.60004 6.48775 6.68437 7.01829 6.85304C7.54958 7.0217 8.0255 7.26664 8.4453 7.5893C8.86435 7.91124 9.21156 8.31017 9.48469 8.7861C9.75782 9.26277 9.92992 9.80764 10.001 10.4222H7.69401ZM11.8935 6.85304H14.276V10.9267H18.6611V6.85304H21.0444V17.4717H18.6618V12.8906H14.276V17.4717H11.8935V6.85304ZM23.3163 6.85304H31.4203V8.81617H25.6988V11.0917H30.9497V12.906H25.6988V15.5086H31.5416V17.4717H23.3163V6.85304ZM40.5511 10.4222C40.513 10.1609 40.42 9.91015 40.278 9.6859C40.1358 9.46226 39.9562 9.26368 39.7467 9.0985C39.3037 8.74959 38.7518 8.56058 38.1835 8.56317C37.6477 8.56317 37.1927 8.6651 36.8178 8.86824C36.4437 9.07137 36.1406 9.34417 35.9079 9.6859C35.6687 10.0423 35.4964 10.4376 35.399 10.8534C35.2919 11.2969 35.2384 11.7513 35.2397 12.2071C35.2397 12.653 35.2928 13.0871 35.399 13.508C35.5053 13.9297 35.6752 14.3088 35.9079 14.6454C36.1399 14.9828 36.4437 15.2534 36.8178 15.4565C37.192 15.6596 37.6484 15.7608 38.1842 15.7608C38.9123 15.7608 39.4818 15.543 39.8911 15.1067C40.3012 14.6704 40.5511 14.0954 40.6424 13.3819H42.9494C42.888 14.0463 42.7316 14.6454 42.478 15.1815C42.2392 15.6975 41.899 16.1622 41.4767 16.5492C41.0555 16.93 40.5603 17.2236 40.0205 17.4123C39.4638 17.6103 38.8517 17.7093 38.1842 17.7093C37.3543 17.7093 36.6083 17.5685 35.9453 17.2854C35.307 17.0196 34.7351 16.6213 34.2691 16.118C33.8056 15.6089 33.4496 15.015 33.2215 14.3704C32.9742 13.6752 32.8509 12.9434 32.8571 12.2071C32.8571 11.4136 32.979 10.6774 33.2215 9.9983C33.4494 9.34484 33.8052 8.74126 34.2691 8.22144C34.7326 7.70967 35.3047 7.30344 35.9453 7.03124C36.6083 6.74377 37.3551 6.60004 38.1842 6.60004C38.7806 6.60004 39.3448 6.68437 39.8754 6.85304C40.4067 7.0217 40.8826 7.26664 41.3024 7.5893C41.7222 7.91124 42.0686 8.31017 42.3425 8.7861C42.6149 9.26277 42.787 9.80764 42.8581 10.4222H40.5503H40.5511ZM44.7505 6.85304H47.1331V11.2552L51.367 6.85304H54.3415L50.1076 11.047L54.7516 17.471H51.7621L48.4995 12.697L47.1331 14.0507V17.4717H44.7505V6.85304Z" fill="#212121"/>
<path d="M67.7136 21.9303C61.5887 21.9303 56.6238 17.0647 56.6238 11.0623C56.6238 5.06 61.588 0.194336 67.7136 0.194336C73.8377 0.194336 78.8034 5.06 78.8034 11.0623C78.8034 17.0647 73.8377 21.9303 67.7136 21.9303ZM67.7136 19.6423C72.5483 19.6423 76.4687 15.8004 76.4687 11.0623C76.4687 6.32354 72.5483 2.48234 67.7136 2.48234C62.8781 2.48234 58.9585 6.32354 58.9585 11.0623C58.9585 15.8004 62.8781 19.6423 67.7136 19.6423Z" fill="#25E270"/>
<path d="M71.9257 7.32969C72.0906 7.17216 72.3122 7.08466 72.5425 7.08614C72.7728 7.08762 72.9933 7.17797 73.1561 7.33761C73.3189 7.49724 73.4109 7.71332 73.4123 7.93901C73.4137 8.1647 73.3242 8.38183 73.1634 8.54336L66.6225 14.9534C66.5412 15.0331 66.4447 15.0964 66.3384 15.1395C66.2322 15.1827 66.1183 15.2049 66.0033 15.2049C65.8883 15.2049 65.7744 15.1827 65.6682 15.1395C65.5619 15.0964 65.4654 15.0331 65.3841 14.9534L62.1327 11.7671C62.0514 11.6874 61.9869 11.5928 61.9429 11.4887C61.8989 11.3846 61.8762 11.273 61.8762 11.1603C61.8762 11.0476 61.8989 10.936 61.9429 10.8318C61.9869 10.7277 62.0514 10.6331 62.1327 10.5534C62.214 10.4737 62.3106 10.4105 62.4168 10.3674C62.5231 10.3243 62.6369 10.3021 62.7519 10.3021C62.8669 10.3021 62.9808 10.3243 63.087 10.3674C63.1933 10.4105 63.2898 10.4737 63.3711 10.5534L66.0037 13.1333L71.9257 7.32969Z" fill="#25E270"/>
<path fill-rule="evenodd" clip-rule="evenodd" d="M83.9473 11.597H85.7986C86.0717 11.597 86.3351 11.5772 86.588 11.5376C86.841 11.498 87.0632 11.421 87.2555 11.3073C87.4478 11.1929 87.602 11.0316 87.7187 10.8233C87.8347 10.6158 87.8931 10.343 87.8931 10.0056C87.8931 9.6683 87.8347 9.39624 87.7187 9.18797C87.6114 8.98885 87.4514 8.82167 87.2555 8.70397C87.0504 8.58553 86.8236 8.50732 86.588 8.4737C86.3269 8.43369 86.0629 8.41407 85.7986 8.41504H83.9473V11.5977V11.597ZM81.5647 6.60004H86.4511C87.129 6.60004 87.706 6.69684 88.1812 6.8897C88.6571 7.0833 89.0439 7.3385 89.3425 7.65604C89.6403 7.97357 89.8581 8.3351 89.995 8.74137C90.1312 9.14837 90.1993 9.57004 90.1993 10.0056C90.1993 10.4317 90.132 10.8512 89.995 11.2626C89.8611 11.6691 89.6381 12.042 89.3418 12.3552C89.0439 12.6728 88.6571 12.928 88.1819 13.1216C87.706 13.3144 87.129 13.4112 86.4511 13.4112H83.9473V17.2187H81.5647V6.60004ZM93.4731 13.1142H96.2807L94.9151 9.2173H94.8852L93.4731 13.1142ZM93.7006 6.60004H96.1438L100.196 17.2187H97.722L96.9026 14.8537H92.8513L92.0012 17.2187H89.6037L93.7006 6.60004ZM102.999 13.0842L99.0233 6.60004H101.695L104.228 10.794L106.747 6.60004H109.404L105.382 13.1436V17.2187H102.999V13.0842Z" fill="#212121"/>
</g>
<defs>
<clipPath id="clip0">
<rect width="110" height="22" fill="white"/>
</clipPath>
</defs>
</svg>
