<svg width="63" height="24" viewBox="0 0 63 24" fill="none" xmlns="http://www.w3.org/2000/svg">
<path d="M42.8258 13.6307L43.453 13.8189C43.4111 13.9966 43.3484 14.1429 43.2543 14.2579C43.1603 14.3729 43.0557 14.467 42.9199 14.5192C42.784 14.5819 42.6167 14.6133 42.4077 14.6133C42.1568 14.6133 41.9582 14.5819 41.7909 14.5088C41.6341 14.4356 41.4983 14.3102 41.3833 14.122C41.2683 13.9443 41.2056 13.7039 41.2056 13.4217C41.2056 13.0454 41.3101 12.7527 41.5087 12.5436C41.7073 12.3346 42 12.2405 42.3658 12.2405C42.6585 12.2405 42.878 12.3032 43.0453 12.4182C43.2125 12.5332 43.338 12.7109 43.4111 12.9617L42.784 13.0976C42.7631 13.0245 42.7422 12.9722 42.7108 12.9408C42.669 12.8886 42.6272 12.8468 42.5645 12.8154C42.5017 12.784 42.439 12.7736 42.3763 12.7736C42.2195 12.7736 42.0941 12.8363 42.0104 12.9722C41.9477 13.0663 41.9164 13.2231 41.9164 13.4217C41.9164 13.6725 41.9582 13.8502 42.0313 13.9443C42.1045 14.0384 42.2195 14.0907 42.3554 14.0907C42.4913 14.0907 42.5958 14.0488 42.6585 13.9757C42.7422 13.8816 42.7944 13.7771 42.8258 13.6307Z" fill="#225E63"/>
<path d="M43.7036 13.4216C43.7036 13.0453 43.8081 12.7526 44.0172 12.5436C44.2263 12.3345 44.5189 12.23 44.8953 12.23C45.282 12.23 45.5747 12.3345 45.7838 12.5331C45.9928 12.7422 46.0973 13.0244 46.0973 13.4007C46.0973 13.6725 46.0555 13.892 45.9615 14.0592C45.8674 14.2265 45.7419 14.3624 45.5642 14.4565C45.397 14.5505 45.1775 14.6028 44.9266 14.6028C44.6653 14.6028 44.4562 14.561 44.2785 14.4774C44.1113 14.3937 43.9754 14.2683 43.8604 14.0802C43.7454 13.892 43.7036 13.6934 43.7036 13.4216ZM44.4144 13.4216C44.4144 13.6516 44.4562 13.8188 44.5399 13.9234C44.6235 14.0279 44.7385 14.0802 44.8953 14.0802C45.052 14.0802 45.167 14.0279 45.2507 13.9338C45.3343 13.8293 45.3761 13.6516 45.3761 13.4007C45.3761 13.1812 45.3343 13.0244 45.2402 12.9303C45.1566 12.8258 45.0311 12.784 44.8848 12.784C44.7385 12.784 44.6235 12.8363 44.5399 12.9408C44.4562 13.0244 44.4144 13.1917 44.4144 13.4216Z" fill="#225E63"/>
<path d="M46.4633 12.2717H47.3936L47.749 13.6724L48.1044 12.2717H49.0347V14.5714H48.4493V12.8153L47.9999 14.5714H47.4772L47.0277 12.8153V14.5714H46.4424V12.2717H46.4633Z" fill="#225E63"/>
<path d="M49.4946 12.2717H50.6758C50.9371 12.2717 51.1253 12.3344 51.2507 12.4599C51.3762 12.5853 51.4389 12.7526 51.4389 12.9825C51.4389 13.2125 51.3657 13.4006 51.2298 13.5261C51.0939 13.662 50.8744 13.7247 50.5922 13.7247H50.2054V14.5818H49.4946V12.2717ZM50.2054 13.2543H50.3831C50.519 13.2543 50.6131 13.2334 50.6758 13.1811C50.7281 13.1289 50.7594 13.0766 50.7594 13.0034C50.7594 12.9303 50.7385 12.8675 50.6863 12.8153C50.634 12.763 50.5504 12.7421 50.4145 12.7421H50.2159V13.2543H50.2054Z" fill="#225E63"/>
<path d="M51.8154 12.2717H52.5262V14.0069H53.6342V14.5714H51.8154V12.2717Z" fill="#225E63"/>
<path d="M53.9897 12.2717H54.7005V14.5714H53.9897V12.2717Z" fill="#225E63"/>
<path d="M56.6235 14.1846H55.8187L55.7037 14.5609H54.9824L55.85 12.2612H56.6235L57.4911 14.5609H56.749L56.6235 14.1846ZM56.4772 13.6933L56.2263 12.8675L55.9755 13.6933H56.4772Z" fill="#225E63"/>
<path d="M57.7109 12.2717H58.3695L59.2371 13.547V12.2717H59.9061V14.5714H59.2371L58.3799 13.3066V14.5714H57.7109V12.2717Z" fill="#225E63"/>
<path d="M60.2197 12.2717H62.3835V12.8362H61.6622V14.5714H60.9514V12.8362H60.2302V12.2717H60.2197Z" fill="#225E63"/>
<path d="M34.2753 15.7735L36.3345 15.1254L35.6655 13.6411C35.1742 14.2578 34.6829 15.0523 34.2753 15.7735ZM33.5749 8.98955L29.5401 0L0 1.67247L8.18467 24L23.9373 19.0348C22.9338 17.5923 22.5679 15.878 23.7282 15.0418C25.0244 14.101 26.9791 15.1882 28.223 16.7247C29.4251 14.7178 32.8014 10.0453 33.5749 8.98955Z" fill="#225E63"/>
<path d="M28.6197 6.49644C29.8532 6.49644 30.8567 5.55567 30.8567 4.38494C30.8567 3.2142 29.8532 2.27344 28.6197 2.27344C27.3863 2.27344 26.3828 3.2142 26.3828 4.38494C26.3828 5.54521 27.3863 6.49644 28.6197 6.49644ZM26.7905 7.40584H30.449V16.9703H26.7905V7.40584Z" fill="#FEFEFE"/>
<path d="M24.9819 10.1968C25.0133 10.2072 25.0342 10.1968 25.0342 10.1654V7.74034C25.0342 7.70899 25.0133 7.67763 24.9819 7.65672C24.9819 7.65672 24.5011 7.34313 23.0376 7.25951C22.9645 7.2177 21.6788 7.20724 21.3338 7.25951C16.0028 7.68808 15.8042 11.5452 15.8042 11.7125V12.6532C15.8042 12.7682 15.8042 16.709 21.3338 17.0539C21.8774 17.0957 22.9331 17.0539 23.0376 17.0539C24.3129 17.0539 25.191 16.6672 25.191 16.6672C25.2223 16.6567 25.2432 16.6254 25.2432 16.594V14.3257C25.2432 14.2944 25.2223 14.2839 25.2014 14.3048C25.2014 14.3048 24.8042 14.6184 23.069 14.7961C22.5777 14.8484 22.3373 14.8275 22.1596 14.7961C19.6927 14.378 19.5777 12.5801 19.5777 12.5801C19.5777 12.5487 19.5673 12.4964 19.5673 12.4755V11.7856C19.5673 11.7543 19.5673 11.702 19.5777 11.6811C19.5777 11.6811 19.745 9.74731 22.1596 9.53826H23.069C24.1248 9.67414 24.9819 10.1968 24.9819 10.1968Z" fill="#FEFEFE"/>
<path d="M5.64404 16.9391C5.64404 16.9704 5.66495 16.9913 5.69631 16.9913H9.26077C9.29213 16.9913 9.31303 16.9704 9.31303 16.9391V14.1586C9.31303 14.1272 9.33394 14.1063 9.3653 14.1063C9.3653 14.1063 15.0622 14.514 15.0622 10.6986C15.0622 7.67774 11.4872 7.3537 10.3165 7.40597C10.2956 7.40597 5.69631 7.40597 5.69631 7.40597C5.66495 7.40597 5.64404 7.42687 5.64404 7.45823V16.9391ZM9.25031 11.9844V9.48611H10.1284C10.1284 9.48611 11.3932 9.53837 11.4977 10.406C11.5186 10.4687 11.5186 10.8973 11.4977 10.9182C11.3305 11.9321 10.2329 11.9844 10.2329 11.9844H9.25031Z" fill="#FEFEFE"/>
<path d="M28.7246 21.5854C29.0173 21.5854 29.2473 21.5854 29.6236 21.4181C30.9198 20.7387 35.2996 10.0453 39.9198 6.75264C39.9511 6.73174 39.9825 6.70038 40.0034 6.66902C40.0348 6.62721 40.0348 6.58539 40.0348 6.58539C40.0348 6.58539 40.0348 6.36588 39.3553 6.36588C35.2473 6.2509 30.972 14.8746 28.7246 18.2823C28.6933 18.3241 28.5469 18.2823 28.5469 18.2823C28.5469 18.2823 27.0417 16.5053 25.7351 15.8258C25.7037 15.8154 25.5574 15.7631 25.4006 15.7736C25.2961 15.7736 24.6898 15.899 24.4076 16.1917C24.0731 16.5471 24.0835 16.7457 24.0835 17.1742C24.0835 17.2056 24.1044 17.3519 24.1463 17.4251C24.4703 17.9896 25.9233 19.9965 27.1253 21.1046C27.303 21.2404 27.5853 21.5854 28.7246 21.5854Z" fill="#2BBC5D"/>
<path d="M41.1323 3.52271H44.5504C45.2299 3.52271 45.7734 3.61678 46.1811 3.79448C46.5992 3.98264 46.9442 4.24396 47.2055 4.57845C47.4773 4.9234 47.6759 5.32061 47.7909 5.77009C47.9163 6.21957 47.979 6.7004 47.979 7.2126C47.979 8.00702 47.8849 8.62375 47.7072 9.06277C47.5295 9.5018 47.2787 9.86765 46.9546 10.1708C46.6306 10.4635 46.2856 10.6621 45.9198 10.7666C45.418 10.9025 44.9581 10.9652 44.5504 10.9652H41.1323V3.52271ZM43.432 5.20563V9.27183H43.9964C44.4773 9.27183 44.8222 9.21957 45.0208 9.11504C45.2194 9.01051 45.3867 8.82236 45.5017 8.56103C45.6166 8.29971 45.6794 7.86068 45.6794 7.26486C45.6794 6.47044 45.5539 5.93734 45.2926 5.64465C45.0313 5.35197 44.6132 5.20563 44.0069 5.20563H43.432Z" fill="#225E63"/>
<path d="M48.6167 8.50867L50.8118 8.37278C50.8641 8.72818 50.9582 8.99996 51.1045 9.18811C51.3449 9.49125 51.6794 9.63759 52.1184 9.63759C52.4425 9.63759 52.7038 9.56442 52.8815 9.40762C53.0592 9.25083 53.1533 9.07313 53.1533 8.87453C53.1533 8.68637 53.0697 8.50867 52.9024 8.35188C52.7352 8.19508 52.338 8.05919 51.7212 7.92331C50.7073 7.69334 49.9965 7.3902 49.5575 7.0139C49.1184 6.63759 48.9094 6.15675 48.9094 5.57139C48.9094 5.18463 49.0244 4.82923 49.2439 4.48428C49.4634 4.13933 49.7979 3.87801 50.2474 3.6794C50.6968 3.4808 51.3031 3.38672 52.0766 3.38672C53.0278 3.38672 53.7596 3.56442 54.2508 3.91982C54.7526 4.27522 55.0453 4.83968 55.1393 5.6132L52.9651 5.73864C52.9024 5.40414 52.7874 5.16372 52.5993 5.00693C52.4111 4.85013 52.1603 4.77696 51.8362 4.77696C51.5644 4.77696 51.3658 4.82923 51.2299 4.94421C51.0941 5.05919 51.0313 5.19508 51.0313 5.36233C51.0313 5.47731 51.0836 5.5923 51.1986 5.68637C51.3031 5.78045 51.5644 5.87452 51.9721 5.95815C52.9756 6.17766 53.6968 6.39717 54.1359 6.61668C54.5749 6.8362 54.8885 7.11843 55.0871 7.44247C55.2857 7.76651 55.3798 8.14282 55.3798 8.55048C55.3798 9.03132 55.2439 9.47034 54.9826 9.86756C54.7212 10.2752 54.3449 10.5784 53.8745 10.7874C53.4042 10.9965 52.7979 11.101 52.0766 11.101C50.8118 11.101 49.9338 10.8606 49.4425 10.3693C48.9616 9.87801 48.6899 9.26128 48.6167 8.50867Z" fill="#225E63"/>
<path d="M55.9653 8.50867L58.1605 8.37278C58.2127 8.72818 58.3068 8.99996 58.4531 9.18811C58.6936 9.49125 59.028 9.63759 59.4671 9.63759C59.7911 9.63759 60.0524 9.56442 60.2301 9.40762C60.4078 9.25083 60.5019 9.07313 60.5019 8.87453C60.5019 8.68637 60.4183 8.50867 60.251 8.35188C60.0838 8.19508 59.6866 8.05919 59.0699 7.92331C58.0559 7.69334 57.3451 7.3902 56.9061 7.0139C56.4775 6.63759 56.258 6.15675 56.258 5.57139C56.258 5.18463 56.373 4.82923 56.5925 4.48428C56.812 4.13933 57.1465 3.87801 57.596 3.6794C58.0455 3.4808 58.6517 3.38672 59.4253 3.38672C60.3765 3.38672 61.1082 3.56442 61.5995 3.91982C62.1012 4.27522 62.3939 4.83968 62.488 5.6132L60.3138 5.73864C60.251 5.40414 60.1361 5.16372 59.9479 5.00693C59.7598 4.85013 59.5089 4.77696 59.1848 4.77696C58.9131 4.77696 58.7145 4.82923 58.5786 4.94421C58.4427 5.05919 58.38 5.19508 58.38 5.36233C58.38 5.47731 58.4322 5.5923 58.5472 5.68637C58.6517 5.78045 58.9131 5.87452 59.3207 5.95815C60.3242 6.17766 61.0455 6.39717 61.4845 6.61668C61.9235 6.8362 62.2371 7.11843 62.4357 7.44247C62.6343 7.76651 62.7284 8.14282 62.7284 8.55048C62.7284 9.03132 62.5925 9.47034 62.3312 9.86756C62.0699 10.2752 61.6936 10.5784 61.2232 10.7874C60.7528 10.9965 60.1465 11.101 59.4253 11.101C58.1605 11.101 57.2824 10.8606 56.7911 10.3693C56.2998 9.87801 56.028 9.26128 55.9653 8.50867Z" fill="#225E63"/>
</svg>
