<svg width="16" height="17" viewBox="0 0 16 17" fill="none" xmlns="http://www.w3.org/2000/svg">
<path d="M15.5 11.7515C15.4997 12.7772 15.1491 13.772 14.5063 14.5712C13.8635 15.3705 12.967 15.9262 11.9653 16.1465L11.4867 14.711C11.9249 14.6388 12.3416 14.4704 12.7068 14.2177C13.0721 13.9651 13.3767 13.6346 13.5988 13.25H11.75C11.3522 13.25 10.9706 13.092 10.6893 12.8107C10.408 12.5294 10.25 12.1478 10.25 11.75V8.75C10.25 8.35218 10.408 7.97064 10.6893 7.68934C10.9706 7.40804 11.3522 7.25 11.75 7.25H13.9535C13.7705 5.80017 13.0647 4.46695 11.9686 3.50051C10.8724 2.53406 9.46134 2.00081 8 2.00081C6.53866 2.00081 5.12755 2.53406 4.03143 3.50051C2.93531 4.46695 2.22952 5.80017 2.0465 7.25H4.25C4.64782 7.25 5.02936 7.40804 5.31066 7.68934C5.59196 7.97064 5.75 8.35218 5.75 8.75V11.75C5.75 12.1478 5.59196 12.5294 5.31066 12.8107C5.02936 13.092 4.64782 13.25 4.25 13.25H2C1.60218 13.25 1.22064 13.092 0.93934 12.8107C0.658035 12.5294 0.5 12.1478 0.5 11.75V8C0.5 3.85775 3.85775 0.5 8 0.5C12.1423 0.5 15.5 3.85775 15.5 8V11.7515ZM14 11.75V8.75H11.75V11.75H14ZM2 8.75V11.75H4.25V8.75H2Z" fill="#717789"/>
</svg>
