<svg width="30" height="30" viewBox="0 0 30 30" fill="none" xmlns="http://www.w3.org/2000/svg">
<path d="M15 0.00012207C6.72 0.00012207 0 6.72012 0 15.0001C0 23.2801 6.72 30.0001 15 30.0001C23.28 30.0001 30 23.2801 30 15.0001C30 6.72012 23.28 0.00012207 15 0.00012207ZM15 4.50012C17.49 4.50012 19.5 6.51012 19.5 9.00012C19.5 11.4901 17.49 13.5001 15 13.5001C12.51 13.5001 10.5 11.4901 10.5 9.00012C10.5 6.51012 12.51 4.50012 15 4.50012ZM15 25.8001C11.25 25.8001 7.935 23.8801 6 20.9701C6.045 17.9851 12 16.3501 15 16.3501C17.985 16.3501 23.955 17.9851 24 20.9701C22.065 23.8801 18.75 25.8001 15 25.8001Z" fill="#C4C4C4"/>
</svg>
