<svg width="28" height="28" viewBox="0 0 28 28" fill="none" xmlns="http://www.w3.org/2000/svg">
<path d="M14 28C21.732 28 28 21.732 28 14C28 6.26801 21.732 0 14 0C6.26801 0 0 6.26801 0 14C0 21.732 6.26801 28 14 28Z" fill="#039BE5"/>
<path d="M6.40598 13.6967L19.9043 8.49216C20.5308 8.26583 21.078 8.645 20.875 9.59233L20.8761 9.59116L18.5778 20.419C18.4075 21.1867 17.9513 21.3733 17.3132 21.0117L13.8132 18.4322L12.125 20.0585C11.9383 20.2452 11.7808 20.4027 11.4192 20.4027L11.6677 16.8408L18.1543 10.9807C18.4367 10.7322 18.0913 10.5922 17.7192 10.8395L9.70298 15.8865L6.24732 14.8085C5.49715 14.5705 5.48082 14.0583 6.40598 13.6967Z" fill="white"/>
</svg>
