<svg width="46" height="46" viewBox="0 0 46 46" fill="none" xmlns="http://www.w3.org/2000/svg">
<g clip-path="url(#clip0)">
<path d="M16.8672 29.6077L19.2037 16.4648H22.8545L20.591 29.6077H16.8672Z" fill="#3C58BF"/>
<path d="M16.8672 29.6077L19.8608 16.4648H22.8545L20.591 29.6077H16.8672Z" fill="#BCC4F8"/>
<path d="M33.8062 16.611C33.076 16.3189 31.9078 16.0269 30.4475 16.0269C26.7967 16.0269 24.1681 17.8523 24.1681 20.4808C24.1681 22.4523 25.9935 23.4745 27.4538 24.1316C28.9141 24.7888 29.3522 25.2269 29.3522 25.811C29.3522 26.6872 28.184 27.1253 27.1618 27.1253C25.7014 27.1253 24.8983 26.9062 23.657 26.3951L23.1459 26.1761L22.6348 29.1697C23.511 29.5348 25.1173 29.8999 26.7967 29.8999C30.6665 29.8999 33.2221 28.0745 33.2221 25.2999C33.2221 23.7665 32.2729 22.5983 30.0824 21.6491C28.7681 20.9919 27.9649 20.6269 27.9649 19.9697C27.9649 19.3856 28.6221 18.8015 30.0824 18.8015C31.3237 18.8015 32.1998 19.0205 32.857 19.3126L33.2221 19.4586L33.8062 16.611Z" fill="#3C58BF"/>
<path d="M33.8062 16.611C33.076 16.3189 31.9078 16.0269 30.4475 16.0269C26.7967 16.0269 24.8252 17.8523 24.8252 20.4808C24.8252 22.4523 25.9935 23.4745 27.4538 24.1316C28.9141 24.7888 29.3522 25.2269 29.3522 25.811C29.3522 26.6872 28.184 27.1253 27.1618 27.1253C25.7014 27.1253 24.8983 26.9062 23.657 26.3951L23.1459 26.1761L22.6348 29.1697C23.511 29.5348 25.1173 29.8999 26.7967 29.8999C30.6665 29.8999 33.2221 28.0745 33.2221 25.2999C33.2221 23.7665 32.2729 22.5983 30.0824 21.6491C28.7681 20.9919 27.9649 20.6269 27.9649 19.9697C27.9649 19.3856 28.6221 18.8015 30.0824 18.8015C31.3237 18.8015 32.1998 19.0205 32.857 19.3126L33.2221 19.4586L33.8062 16.611Z" fill="#BCC4F8"/>
<path d="M40.086 16.4648C39.2098 16.4648 38.5527 16.5379 38.1876 17.4141L32.7114 29.6077H36.6543L37.3844 27.4172H42.0575L42.4956 29.6077H46.0003L42.9336 16.4648H40.086ZM38.4067 25.2267C38.6257 24.5696 39.867 21.3569 39.867 21.3569C39.867 21.3569 40.159 20.5537 40.3781 20.0426L40.5971 21.2839C40.5971 21.2839 41.3273 24.5696 41.4733 25.2998H38.4067V25.2267Z" fill="#3C58BF"/>
<path d="M40.9622 16.4648C40.086 16.4648 39.4289 16.5379 39.0638 17.4141L32.7114 29.6077H36.6543L37.3844 27.4172H42.0575L42.4956 29.6077H46.0003L42.9336 16.4648H40.9622ZM38.4067 25.2267C38.6987 24.4966 39.867 21.3569 39.867 21.3569C39.867 21.3569 40.159 20.5537 40.3781 20.0426L40.5971 21.2839C40.5971 21.2839 41.3273 24.5696 41.4733 25.2998H38.4067V25.2267Z" fill="#BCC4F8"/>
<path d="M10.149 25.6653L9.78396 23.7669C9.12682 21.5764 7.00936 19.1669 4.67285 17.9986L7.95857 29.6812H11.9014L17.8157 16.5383H13.8729L10.149 25.6653Z" fill="#3C58BF"/>
<path d="M10.149 25.6653L9.78396 23.7669C9.12682 21.5764 7.00936 19.1669 4.67285 17.9986L7.95857 29.6812H11.9014L17.8157 16.5383H14.603L10.149 25.6653Z" fill="#BCC4F8"/>
<path d="M0 16.4648L0.657143 16.6109C5.33016 17.7061 8.54286 20.4807 9.78413 23.7664L8.46984 17.5601C8.25079 16.6839 7.59365 16.4648 6.79048 16.4648H0Z" fill="#FFBC00"/>
<path d="M0 16.4648C4.67302 17.5601 8.54286 20.4077 9.78413 23.6934L8.54286 18.5093C8.32381 17.6331 7.59365 17.122 6.79048 17.122L0 16.4648Z" fill="#F7981D"/>
<path d="M0 16.4648C4.67302 17.5601 8.54286 20.4077 9.78413 23.6934L8.90794 20.8458C8.68889 19.9696 8.39682 19.0934 7.3746 18.7283L0 16.4648Z" fill="#ED7C00"/>
<path d="M13.8001 25.2269L11.3175 22.7443L10.1493 25.5189L9.8572 23.6935C9.20006 21.5031 7.0826 19.0935 4.74609 17.9253L8.03181 29.6078H11.9747L13.8001 25.2269Z" fill="white"/>
<path d="M20.591 29.6077L17.4513 26.395L16.8672 29.6077H20.591Z" fill="white"/>
<path d="M28.9876 25.0808C29.2797 25.3729 29.4257 25.5919 29.3527 25.884C29.3527 26.7602 28.1845 27.1983 27.1622 27.1983C25.7019 27.1983 24.8987 26.9792 23.6575 26.4681L23.1464 26.2491L22.6353 29.2427C23.5114 29.6078 25.1178 29.9729 26.7972 29.9729C29.1337 29.9729 31.0321 29.3157 32.1273 28.1475L28.9876 25.0808Z" fill="white"/>
<path d="M33.2222 29.6078H36.6539L37.3841 27.4173H42.0571L42.4952 29.6078H45.9999L44.7587 24.2776L40.3777 20.0427L40.5968 21.211C40.5968 21.211 41.3269 24.4967 41.473 25.2268H38.4063C38.6984 24.4967 39.8666 21.357 39.8666 21.357C39.8666 21.357 40.1587 20.5538 40.3777 20.0427" fill="white"/>
</g>
<defs>
<clipPath id="clip0">
<rect width="46" height="46" fill="white"/>
</clipPath>
</defs>
</svg>
